PathFileType	4	(X/Y/Z)	C:\Users\italobelli\Desktop\GitHub\PTbot_officialCBL\Personal_Results\SHRUG22_noisy2.trc
DataRate	CameraRate	NumFrames	NumMarkers	Units	OrigDataRate	OrigDataStartFrame	OrigNumFrames
110.888889	110.888889	21	9	m	110.888889	313	500
Frame#	Time		gu		centelbow		EpL		centpxt8		centijc7		ij		ts		aa		ai
			X1	Y1	Z1	X2	Y2	Z2	X3	Y3	Z3	X4	Y4	Z4	X5	Y5	Z5	X6	Y6	Z6	X7	Y7	Z7	X8	Y8	Z8	X9	Y9	Z9

313	2.8136	-0.12409	0.04352	0.15076	-0.12321	-0.20183	0.21021	-0.11757	-0.1899	0.23968	-0.046816	-0.15316	-0.008669	-0.046816	0.031938	-0.008669	0	0	0	-0.13092	0.045381	0.017245	-0.1546	0.073322	0.13059	-0.14264	-0.063907	0.047057
314	2.8226	-0.12404	0.043156	0.15079	-0.12301	-0.20217	0.2101	-0.1173	-0.19028	0.23958	-0.046816	-0.15316	-0.008669	-0.046816	0.031938	-0.008669	0	0	0	-0.13096	0.045472	0.017368	-0.15448	0.073062	0.13084	-0.14268	-0.063912	0.046856
315	2.8317	-0.12398	0.042787	0.15081	-0.12282	-0.20252	0.21	-0.11704	-0.19065	0.23947	-0.046816	-0.15316	-0.008669	-0.046816	0.031938	-0.008669	0	0	0	-0.13101	0.04556	0.017494	-0.15435	0.072797	0.13109	-0.14273	-0.063917	0.046657
316	2.8407	-0.12393	0.042414	0.15084	-0.12264	-0.20287	0.20989	-0.11678	-0.19104	0.23937	-0.046816	-0.15316	-0.008669	-0.046816	0.031938	-0.008669	0	0	0	-0.13105	0.045645	0.017622	-0.15423	0.072529	0.13134	-0.14277	-0.063922	0.046458
317	2.8497	-0.12387	0.042037	0.15087	-0.12246	-0.20322	0.20979	-0.11653	-0.19142	0.23926	-0.046816	-0.15316	-0.008669	-0.046816	0.031938	-0.008669	0	0	0	-0.1311	0.045728	0.017751	-0.1541	0.072258	0.13159	-0.14282	-0.063928	0.046261
318	2.8587	-0.12381	0.041656	0.1509	-0.12229	-0.20358	0.20968	-0.11629	-0.19182	0.23915	-0.046816	-0.15316	-0.008669	-0.046816	0.031938	-0.008669	0	0	0	-0.13114	0.045807	0.017883	-0.15397	0.071983	0.13184	-0.14287	-0.063933	0.046066
319	2.8677	-0.12375	0.041271	0.15092	-0.12212	-0.20395	0.20957	-0.11605	-0.19222	0.23903	-0.046816	-0.15316	-0.008669	-0.046816	0.031938	-0.008669	0	0	0	-0.13119	0.045883	0.018016	-0.15384	0.071705	0.1321	-0.14292	-0.063939	0.045873
320	2.8768	-0.12369	0.040884	0.15095	-0.12196	-0.20432	0.20946	-0.11583	-0.19262	0.23892	-0.046816	-0.15316	-0.008669	-0.046816	0.031938	-0.008669	0	0	0	-0.13124	0.045955	0.018152	-0.15371	0.071424	0.13236	-0.14297	-0.063945	0.045682
321	2.8858	-0.12363	0.040493	0.15098	-0.12181	-0.20469	0.20934	-0.11561	-0.19303	0.2388	-0.046816	-0.15316	-0.008669	-0.046816	0.031938	-0.008669	0	0	0	-0.13129	0.046023	0.018289	-0.15357	0.07114	0.13261	-0.14302	-0.06395	0.045494
322	2.8948	-0.12357	0.0401	0.15101	-0.12167	-0.20507	0.20923	-0.1154	-0.19344	0.23869	-0.046816	-0.15316	-0.008669	-0.046816	0.031938	-0.008669	0	0	0	-0.13134	0.046086	0.018427	-0.15344	0.070853	0.13287	-0.14307	-0.063957	0.045309
323	2.9038	-0.1235	0.039704	0.15104	-0.12153	-0.20545	0.20911	-0.1152	-0.19386	0.23857	-0.046816	-0.15316	-0.008669	-0.046816	0.031938	-0.008669	0	0	0	-0.13139	0.046146	0.018567	-0.1533	0.070563	0.13313	-0.14312	-0.063963	0.045127
324	2.9128	-0.12343	0.039307	0.15107	-0.12141	-0.20584	0.20899	-0.11501	-0.19428	0.23844	-0.046816	-0.15316	-0.008669	-0.046816	0.031938	-0.008669	0	0	0	-0.13143	0.0462	0.018709	-0.15315	0.070271	0.13339	-0.14318	-0.063969	0.044949
325	2.9218	-0.12337	0.038908	0.1511	-0.12129	-0.20623	0.20887	-0.11483	-0.19471	0.23832	-0.046816	-0.15316	-0.008669	-0.046816	0.031938	-0.008669	0	0	0	-0.13148	0.046249	0.018852	-0.15301	0.069977	0.13365	-0.14323	-0.063975	0.044775
326	2.9309	-0.1233	0.038508	0.15113	-0.12119	-0.20662	0.20874	-0.11466	-0.19514	0.2382	-0.046816	-0.15316	-0.008669	-0.046816	0.031938	-0.008669	0	0	0	-0.13154	0.046293	0.018997	-0.15286	0.06968	0.13391	-0.14329	-0.063982	0.044604
327	2.9399	-0.12322	0.038106	0.15116	-0.1211	-0.20702	0.20862	-0.11451	-0.19558	0.23807	-0.046816	-0.15316	-0.008669	-0.046816	0.031938	-0.008669	0	0	0	-0.13159	0.046332	0.019143	-0.15272	0.069382	0.13417	-0.14334	-0.063989	0.044438
328	2.9489	-0.12315	0.037705	0.15119	-0.12101	-0.20742	0.20849	-0.11437	-0.19602	0.23794	-0.046816	-0.15316	-0.008669	-0.046816	0.031938	-0.008669	0	0	0	-0.13164	0.046364	0.01929	-0.15257	0.069081	0.13443	-0.1434	-0.063995	0.044277
329	2.9579	-0.12307	0.037302	0.15123	-0.12094	-0.20783	0.20837	-0.11424	-0.19646	0.23781	-0.046816	-0.15316	-0.008669	-0.046816	0.031938	-0.008669	0	0	0	-0.13169	0.046391	0.019438	-0.15241	0.068779	0.13469	-0.14346	-0.064002	0.044121
330	2.9669	-0.123	0.0369	0.15126	-0.12089	-0.20824	0.20823	-0.11413	-0.19691	0.23768	-0.046816	-0.15316	-0.008669	-0.046816	0.031938	-0.008669	0	0	0	-0.13174	0.046411	0.019587	-0.15226	0.068475	0.13495	-0.14352	-0.064009	0.043969
331	2.976	-0.12292	0.036498	0.15129	-0.12085	-0.20866	0.2081	-0.11403	-0.19737	0.23754	-0.046816	-0.15316	-0.008669	-0.046816	0.031938	-0.008669	0	0	0	-0.13179	0.046425	0.019738	-0.1521	0.06817	0.13521	-0.14358	-0.064016	0.043824
332	2.985	-0.12284	0.036096	0.15132	-0.12082	-0.20907	0.20797	-0.11395	-0.19783	0.2374	-0.046816	-0.15316	-0.008669	-0.046816	0.031938	-0.008669	0	0	0	-0.13184	0.046431	0.019889	-0.15195	0.067863	0.13547	-0.14364	-0.064024	0.043684
333	2.994	-0.12276	0.035695	0.15136	-0.1208	-0.2095	0.20783	-0.11388	-0.19829	0.23726	-0.046816	-0.15316	-0.008669	-0.046816	0.031938	-0.008669	0	0	0	-0.1319	0.046431	0.020042	-0.15179	0.067556	0.13572	-0.14371	-0.064031	0.043551
